<?xml version="1.0" encoding="UTF-8" standalone="no"?>
<!DOCTYPE svg PUBLIC "-//W3C//DTD SVG 1.1//EN" "http://www.w3.org/Graphics/SVG/1.1/DTD/svg11.dtd">
<svg width="100%" height="100%" viewBox="0 0 2000 2000" version="1.1" xmlns="http://www.w3.org/2000/svg" xmlns:xlink="http://www.w3.org/1999/xlink" xml:space="preserve" xmlns:serif="http://www.serif.com/" style="fill-rule:evenodd;clip-rule:evenodd;stroke-linejoin:round;stroke-miterlimit:2;">
    <rect id="logo-with-name-v" x="0" y="0" width="2000" height="2000" style="fill:none;"/>
    <g id="logo-with-name-v1" serif:id="logo-with-name-v">
        <g transform="matrix(2.85933,0,0,2.85933,-492.798,-2124.83)">
            <g transform="matrix(166.667,0,0,166.667,692.08,1288.18)">
            </g>
            <text x="354.58px" y="1288.18px" style="font-family:'Phosphate-Solid', 'Phosphate';font-size:166.667px;fill:rgb(222,131,59);">C<tspan x="447.747px 563.913px " y="1288.18px 1288.18px ">GM</tspan></text>
        </g>
        <g transform="matrix(1.78903,0,0,1.78903,63.0016,-453.463)">
            <g transform="matrix(166.667,0,0,166.667,856.413,1288.18)">
            </g>
            <text x="190.247px" y="1288.18px" style="font-family:'Phosphate-Solid', 'Phosphate';font-size:166.667px;fill:rgb(128,157,121);">Seguros</text>
        </g>
        <g transform="matrix(0.738644,0,0,0.738644,261.356,-131.08)">
            <g transform="matrix(1.27077,0,0,1.27077,-1007.12,184.59)">
                <circle cx="1579.44" cy="641.665" r="579.445" style="fill:white;"/>
            </g>
            <g transform="matrix(-1.91746,0,0,1.91746,2795.56,-366.557)">
                <path d="M957.338,729.925C986.093,721.004 1007,694.178 1007,662.506C1007,623.556 975.379,591.933 936.429,591.933C897.479,591.933 865.856,623.556 865.856,662.506C865.856,694.178 886.765,721.004 915.52,729.925C866.895,739.648 830.211,782.614 830.211,834.082L830.211,919.407C830.211,954.816 844.277,988.775 869.315,1013.81C894.353,1038.85 928.312,1052.92 963.721,1052.92L1042.65,1052.92L1042.65,834.082C1042.65,782.614 1005.96,739.648 957.338,729.925Z" style="fill:rgb(128,157,121);"/>
            </g>
            <g transform="matrix(1.91746,0,0,1.91746,-1067.52,-460.238)">
                <path d="M830.211,834.082C830.211,782.614 866.895,739.648 915.52,729.925C886.765,721.004 865.856,694.178 865.856,662.506C865.856,623.556 897.479,591.933 936.429,591.933C975.379,591.933 1007,623.556 1007,662.506C1007,694.178 986.093,721.004 957.338,729.925C1005.96,739.648 1042.65,782.614 1042.65,834.082L1042.65,1052.92L963.721,1052.92C928.312,1052.92 894.353,1038.85 869.315,1013.81C844.277,988.775 830.211,954.816 830.211,919.407L830.211,834.082Z" style="fill:rgb(128,157,121);"/>
            </g>
            <g transform="matrix(-1.91746,0,0,1.91746,3065.68,-460.238)">
                <path d="M957.338,729.925C986.093,721.004 1007,694.178 1007,662.506C1007,623.556 975.379,591.933 936.429,591.933C897.479,591.933 865.856,623.556 865.856,662.506C865.856,694.178 886.765,721.004 915.52,729.925C866.895,739.648 830.211,782.614 830.211,834.082L830.211,919.407C830.211,954.816 844.277,988.775 869.315,1013.81C894.353,1038.85 928.312,1052.92 963.721,1052.92L1042.65,1052.92L1042.65,834.082C1042.65,782.614 1005.96,739.648 957.338,729.925Z" style="fill:rgb(128,157,121);"/>
            </g>
            <g transform="matrix(2.28137,0,0,2.28137,-1474.06,-783.724)">
                <path d="M1204.91,1012.94C1288.15,969.423 1345.03,882.233 1345.03,781.865C1345.03,638.057 1228.27,521.303 1084.46,521.303C940.656,521.303 823.902,638.057 823.902,781.865C823.902,784.606 823.944,787.337 824.028,790.058L779.848,719.986C808.569,578.061 934.122,471.078 1084.46,471.078C1255.99,471.078 1395.25,610.337 1395.25,781.865C1395.25,953.393 1255.99,1092.65 1084.46,1092.65C912.936,1092.65 773.677,953.393 773.677,781.865C773.677,776.584 773.809,771.333 774.07,766.116C774.085,766.14 774.1,766.165 774.115,766.189C774.113,766.183 774.112,766.178 774.11,766.172C774.139,766.221 774.168,766.27 774.196,766.319C794.021,797.946 813.812,825.675 832.421,848.145C832.519,848.517 832.617,848.889 832.717,849.261C879.784,903.719 932.71,936.927 993.565,941.408C939.854,915.223 902.559,887.397 909.592,859.626C914.218,850.981 924.618,851.215 937.778,860.209C952.658,872.561 1012.24,888.371 1109.25,909.52C1147.77,915.081 1190.6,964.468 1204.91,1012.94Z" style="fill:rgb(222,131,59);"/>
            </g>
        </g>
    </g>
</svg>
